<svg width="24" height="25" viewBox="0 0 24 25" fill="none" xmlns="http://www.w3.org/2000/svg">
<path d="M11.9991 17.942C12.8994 17.942 13.6291 17.2122 13.6291 16.312C13.6291 15.4118 12.8994 14.682 11.9991 14.682C11.0989 14.682 10.3691 15.4118 10.3691 16.312C10.3691 17.2122 11.0989 17.942 11.9991 17.942Z" fill="#292D32"/>
<path d="M18.28 10.122V8.87204C18.28 6.17204 17.63 2.59204 12 2.59204C6.37 2.59204 5.72 6.17204 5.72 8.87204V10.122C2.92 10.472 2 11.892 2 15.382V17.242C2 21.342 3.25 22.592 7.35 22.592H16.65C20.75 22.592 22 21.342 22 17.242V15.382C22 11.892 21.08 10.472 18.28 10.122ZM12 19.332C10.33 19.332 8.98 17.972 8.98 16.312C8.98 14.642 10.34 13.292 12 13.292C13.66 13.292 15.02 14.652 15.02 16.312C15.02 17.982 13.67 19.332 12 19.332ZM7.35 10.032C7.27 10.032 7.2 10.032 7.12 10.032V8.87204C7.12 5.94204 7.95 3.99204 12 3.99204C16.05 3.99204 16.88 5.94204 16.88 8.87204V10.042C16.8 10.042 16.73 10.042 16.65 10.042H7.35V10.032Z" fill="#292D32"/>
</svg>
