<svg width="20" height="20" viewBox="0 0 20 20" fill="none" xmlns="http://www.w3.org/2000/svg">
<path d="M15.536 11.4208C15.151 11.7966 14.931 12.3375 14.986 12.915C15.0685 13.905 15.976 14.6291 16.966 14.6291H18.7077V15.72C18.7077 17.6175 17.1585 19.1667 15.261 19.1667H4.73768C2.84018 19.1667 1.29102 17.6175 1.29102 15.72V9.55083C1.29102 7.65333 2.84018 6.10416 4.73768 6.10416H15.261C17.1585 6.10416 18.7077 7.65333 18.7077 9.55083V10.8708H16.856C16.3427 10.8708 15.8752 11.0725 15.536 11.4208Z" stroke="#292D32" stroke-width="1.5" stroke-linecap="round" stroke-linejoin="round"/>
<path d="M1.29102 10.3758V6.1867C1.29102 5.09587 1.96018 4.12416 2.97768 3.73916L10.256 0.989161C11.3927 0.558328 12.6118 1.40169 12.6118 2.62085V6.10418" stroke="#292D32" stroke-width="1.5" stroke-linecap="round" stroke-linejoin="round"/>
</svg>
